<svg xmlns="http://www.w3.org/2000/svg" xmlns:xlink="http://www.w3.org/1999/xlink" x="0" y="0" width="655.1642456054688" height="301.16790771484375" style="
        width:655.1642456054688px;
        height:301.16790771484375px;
        background: transparent;
        fill: none;
">
        
        
        <svg xmlns="http://www.w3.org/2000/svg" class="role-diagram-draw-area"><g class="shapes-region" style="stroke: black; fill: none;"><g class="composite-shape"><path class="real" d=" M217.81,38.12 L383.85,239.62 L49.34,239.62 Z" style="stroke-width: 1; stroke: rgb(0, 0, 0); fill: none; fill-opacity: 1;"/></g><g class="arrow-line"><path class="connection real" stroke-dasharray="" d="  M602.99,239.62 L383.85,239.62" style="stroke: rgb(0, 0, 0); stroke-width: 1; fill: none; fill-opacity: 1;"/></g><g class="composite-shape"><path class="real" d=" M365.9,219.18 C366.62,217.95 367.56,216.82 368.73,215.8 C376.8,208.72 392.58,209.91 403.98,218.44 C412.58,224.88 416.22,233.66 414.03,240.63 L389.36,231.25 Z" style="stroke-width: 1; stroke: none; fill: none; fill-opacity: 1;"/><path class="real" d=" M365.9,219.18 C366.62,217.95 367.56,216.82 368.73,215.8 C376.8,208.72 392.58,209.91 403.98,218.44 C412.58,224.88 416.22,233.66 414.03,240.63" style="stroke-width: 1; stroke: rgb(0, 0, 0); fill: none; fill-opacity: 1;"/></g><g class="arrow-line"><path class="connection real" stroke-dasharray="" d="  M120.72,116.63 L154.63,158.5" style="stroke: rgb(0, 0, 0); stroke-width: 1; fill: none; fill-opacity: 1;"/></g><g class="arrow-line"><path class="connection real" stroke-dasharray="" d="  M232.14,216.07 L232.14,256.63" style="stroke: rgb(0, 0, 0); stroke-width: 1; fill: none; fill-opacity: 1;"/></g><g class="arrow-line"><path class="connection real" stroke-dasharray="" d="  M316.73,116.98 L284.58,159" style="stroke: rgb(0, 0, 0); stroke-width: 1; fill: none; fill-opacity: 1;"/></g><g/></g><g/><g/><g/></svg>
        <svg xmlns="http://www.w3.org/2000/svg" xmlns:xlink="http://www.w3.org/1999/xlink" width="653.9963989257812" height="300.0000305175781" style="width:653.9963989257812px;height:300.0000305175781px;font-family:Asana-Math, Asana;background:transparent;"><g transform="matrix(0.8317603942069665,0.5551348004121808,-0.5551348004121808,0.8317603942069665,187.12616743962644,-198.4577854590799)"><g><g><g><g><g><g transform="matrix(1,0,0,1,389.9544372558594,214.40750274658203)"><path transform="matrix(0.0136,0,0,-0.0136,0,0)" d="M146 266C146 526 243 632 301 700L282 726C225 675 60 542 60 266C60 159 85 58 133 -32C168 -99 200 -138 282 -215L301 -194C255 -137 146 -15 146 266Z" stroke="rgb(0,0,0)" stroke-opacity="1" stroke-width="8" fill="rgb(0,0,0)" fill-opacity="1"></path></g></g><g><g transform="matrix(1,0,0,1,394.4708557128906,213.82354888916015)"><path transform="matrix(0.0136,0,0,-0.0136,0,0)" d="M16 23L16 -3C203 -3 203 0 239 0C275 0 275 -3 468 -3L468 82C353 77 307 81 122 77L304 270C401 373 431 428 431 503C431 618 353 689 226 689C154 689 105 669 56 619L39 483L68 483L81 529C97 587 133 612 200 612C286 612 341 558 341 473C341 398 299 324 186 204ZM508 1C523 -7 539 -11 551 -11C584 -11 623 18 654 65L730 182L741 113C754 28 777 -11 813 -11C835 -11 867 6 899 35L948 79L939 98C903 68 878 53 862 53C847 53 834 63 824 83C815 102 804 139 799 168L781 269L816 318C863 383 890 406 921 406C937 406 949 398 954 383L968 387L983 472C971 479 962 482 953 482C913 482 873 446 811 354L774 299L768 347C756 446 729 482 670 482C644 482 622 474 613 461L555 378L572 368C602 402 622 416 641 416C674 416 696 375 713 277L724 215L684 153C641 86 607 54 579 54C564 54 553 58 551 63L540 91L520 88C520 53 512 27 508 1Z" stroke="rgb(0,0,0)" stroke-opacity="1" stroke-width="8" fill="rgb(0,0,0)" fill-opacity="1"></path></g></g><g><g transform="matrix(1,0,0,1,414.1515197753906,213.82354888916015)"><path transform="matrix(0.0136,0,0,-0.0136,0,0)" d="M555 243L555 299L51 299L51 243Z" stroke="rgb(0,0,0)" stroke-opacity="1" stroke-width="8" fill="rgb(0,0,0)" fill-opacity="1"></path></g></g><g><g transform="matrix(1,0,0,1,425.1003723144531,213.82354888916015)"><path transform="matrix(0.0136,0,0,-0.0136,0,0)" d="M667 -3L667 27L615 30C560 33 550 44 550 96L550 700L309 598L316 548L466 614L466 96C466 44 455 33 401 30L345 27L345 -3C499 0 499 0 510 0C541 0 651 -3 667 -3ZM1011 689C856 689 777 566 777 324C777 207 798 106 833 57C868 8 924 -20 986 -20C1137 -20 1213 110 1213 366C1213 585 1148 689 1011 689ZM993 654C1090 654 1129 556 1129 316C1129 103 1091 15 999 15C902 15 861 116 861 360C861 571 898 654 993 654ZM1446 689C1364 689 1297 622 1297 539C1297 456 1364 389 1447 389C1528 389 1597 457 1597 537C1597 621 1530 689 1446 689ZM1446 649C1507 649 1557 599 1557 537C1557 479 1507 429 1447 429C1386 429 1337 478 1337 539C1337 600 1386 649 1446 649Z" stroke="rgb(0,0,0)" stroke-opacity="1" stroke-width="8" fill="rgb(0,0,0)" fill-opacity="1"></path></g></g><g><g transform="matrix(1,0,0,1,447.5000305175781,214.40750274658203)"><path transform="matrix(0.0136,0,0,-0.0136,0,0)" d="M51 726L32 700C87 636 187 526 187 266C187 -10 83 -131 32 -194L51 -215C104 -165 273 -23 273 265C273 542 108 675 51 726Z" stroke="rgb(0,0,0)" stroke-opacity="1" stroke-width="8" fill="rgb(0,0,0)" fill-opacity="1"></path></g></g></g></g></g></g></g><g><g><g><g><g></g></g></g></g></g><g><g><g><text x="215.10952758789062" y="13.722633361816406" style="white-space:pre;stroke:none;fill:rgb(0,0,0);fill-opacity:1;font-size:15px;font-family:Arial, Helvetica, sans-serif;font-weight:700;font-style:normal;dominant-baseline:text-before-edge;text-decoration:none solid rgb(0, 0, 0);">P</text></g></g></g><g><g><g><text x="23.27557373046875" y="233.42154693603516" style="white-space:pre;stroke:none;fill:rgb(0,0,0);fill-opacity:1;font-size:15px;font-family:Arial, Helvetica, sans-serif;font-weight:700;font-style:normal;dominant-baseline:text-before-edge;text-decoration:none solid rgb(0, 0, 0);">Q</text></g></g></g><g><g><g><text x="380.1916198730469" y="244.6897964477539" style="white-space:pre;stroke:none;fill:rgb(0,0,0);fill-opacity:1;font-size:15px;font-family:Arial, Helvetica, sans-serif;font-weight:700;font-style:normal;dominant-baseline:text-before-edge;text-decoration:none solid rgb(0, 0, 0);">R</text></g></g></g><g><g><g><text x="612.8650207519531" y="232.01642608642578" style="white-space:pre;stroke:none;fill:rgb(0,0,0);fill-opacity:1;font-size:15px;font-family:Arial, Helvetica, sans-serif;font-weight:700;font-style:normal;dominant-baseline:text-before-edge;text-decoration:none solid rgb(0, 0, 0);">S</text></g></g></g><g><g><g><text x="207.48178100585938" y="275.2737503051758" style="white-space:pre;stroke:none;fill:rgb(0,0,0);fill-opacity:1;font-size:10.5px;font-family:Arial, Helvetica, sans-serif;font-weight:400;font-style:normal;dominant-baseline:text-before-edge;text-decoration:none solid rgb(0, 0, 0);">Not drawn to scale</text></g></g></g></svg>
</svg>
